<svg xmlns="http://www.w3.org/2000/svg" xmlns:xlink="http://www.w3.org/1999/xlink" viewBox="0 0 100 100" version="1.1" x="0px" y="0px"><title>magn_gls-5</title><desc>Created with Sketch.</desc><g stroke="none" stroke-width="1" fill="none" fill-rule="evenodd"><path d="M50,61.7094605 C45.6890667,61.7094605 42.1821147,58.2022563 42.1821147,53.8915752 C42.1821147,49.5808941 45.6890667,46.0736899 50,46.0736899 C54.3109333,46.0736899 57.8178853,49.5808941 57.8178853,53.8915752 C57.8178853,58.2022563 54.3109333,61.7094605 50,61.7094605 L50,61.7094605 Z M95,46.2045764 C94.180383,45.4611207 74.6444964,28 50,28 C25.3555036,28 5.81961701,45.4611207 5,46.2045764 L11.7710452,53.6820054 C11.9142891,53.5531364 23.8103364,42.9820945 39.6135611,39.3202979 C35.0668303,42.5705207 32.0945208,47.8889524 32.0945208,53.8915752 C32.0945208,63.7645556 40.1270196,71.7970544 50,71.7970544 C59.8729804,71.7970544 67.9054792,63.7645556 67.9054792,53.8915752 C67.9054792,47.8889524 64.9331697,42.5705207 60.3864389,39.3202979 C76.1896636,42.9818423 88.0847022,53.5521276 88.22265,53.6764572 L95,46.2045764 Z" fill="#000000"/></g></svg>